# xmcd
#
# Track frame offsets:
#	150
#	12577
#	25456
#	39936
#
# Disc length: 690 seconds
#
# Revision: 0
# Processed by: cddbd v1.5.2PL0 Copyright (c) Steve Scherf et al.
# Submitted via: audiograbber 1.83.01
#
DISCID=2902b004
DTITLE=Christie - Yellow River
DYEAR=1973
DGENRE=Country
TTITLE0=Yellow River
TTITLE1=Down The Mississippi Line
TTITLE2=San Bernadino
TTITLE3=Here I Am
EXTD=
EXTT0=
EXTT1=
EXTT2=
EXTT3=
PLAYORDER=
